<svg xmlns="http://www.w3.org/2000/svg" viewBox="0 0 151.5 113.75"><defs><style>.cls-1{fill:none;stroke:#366ca5;stroke-linecap:round;stroke-miterlimit:10;stroke-width:2.5px;}</style></defs><title>Asset 2</title><g id="Layer_2" data-name="Layer 2"><g id="Layer_1-2" data-name="Layer 1"><path class="cls-1" d="M34.25,112.5H11.75A10.5,10.5,0,0,1,1.25,102V79.63"/><path class="cls-1" d="M150.25,80.12V102a10.5,10.5,0,0,1-10.5,10.5H117.12"/><path class="cls-1" d="M116.75,1.25h23a10.5,10.5,0,0,1,10.5,10.5v21.5"/><path class="cls-1" d="M1.25,34.42V11.75a10.5,10.5,0,0,1,10.5-10.5h23"/><circle class="cls-1" cx="75.75" cy="56.88" r="29.13"/><line class="cls-1" x1="22.92" y1="56.88" x2="59.42" y2="56.88"/><line class="cls-1" x1="92.17" y1="56.88" x2="128.67" y2="56.88"/><line class="cls-1" x1="75.79" y1="4" x2="75.79" y2="40.5"/><line class="cls-1" x1="75.79" y1="73.25" x2="75.79" y2="109.75"/></g></g></svg>