<svg xmlns="http://www.w3.org/2000/svg" viewBox="0 0 159.5 121.56"><defs><style>.cls-1{fill:none;stroke:#366ca5;stroke-linecap:round;stroke-miterlimit:10;stroke-width:2.5px;}</style></defs><title>Asset 3</title><g id="Layer_2" data-name="Layer 2"><g id="Layer_1-2" data-name="Layer 1"><polyline class="cls-1" points="43.04 6.46 15.18 6.46 15.18 42.95 70.9 42.95 70.9 6.46 43.04 6.46"/><polyline class="cls-1" points="76.57 42.95 76.57 1.25 9.52 1.25 9.52 42.95"/><polygon class="cls-1" points="52.3 49.11 49.42 52.07 43.22 52.07 42.86 52.07 36.66 52.07 33.78 49.11 1.25 49.11 1.25 52.07 6.73 57.47 42.86 57.47 43.22 57.47 79.35 57.47 84.83 52.07 84.83 49.11 52.3 49.11"/><polyline class="cls-1" points="116.46 69.31 88.6 69.31 88.6 105.8 144.32 105.8 144.32 69.31 116.46 69.31"/><polyline class="cls-1" points="149.98 105.8 149.98 64.1 82.93 64.1 82.93 105.8"/><polygon class="cls-1" points="125.72 111.95 122.84 114.92 116.64 114.92 116.28 114.92 110.08 114.92 107.2 111.95 74.67 111.95 74.67 114.92 80.15 120.31 116.28 120.31 116.64 120.31 152.77 120.31 158.25 114.92 158.25 111.95 125.72 111.95"/><path class="cls-1" d="M125.82,42.73A36.05,36.05,0,0,0,92,13.9a36.07,36.07,0,0,1,23.6,29.75l-5.89.53,6.11,5.14,4.72,4,10.12-11Z"/><path class="cls-1" d="M22.32,78.42a36.05,36.05,0,0,0,33.82,28.83,36.07,36.07,0,0,1-23.6-29.75L38.43,77l-6.11-5.14-4.72-4-10.12,11Z"/></g></g></svg>