<svg xmlns="http://www.w3.org/2000/svg" viewBox="0 0 110.11 159.92"><defs><style>.cls-1{fill:none;stroke:#366ca5;stroke-linecap:round;stroke-miterlimit:10;stroke-width:2.5px;}</style></defs><title>Asset 4</title><g id="Layer_2" data-name="Layer 2"><g id="Layer_1-2" data-name="Layer 1"><path class="cls-1" d="M16.68,61.42C16,75.17,20.39,81,28,91.25c8.92,12,7.28,24.24,7.67,33.92H74.43v8h-39v7.5h39v8.13H54.93v9.88"/><path class="cls-1" d="M93.43,61.42C94.12,75.17,89.72,81,82.09,91.25c-8.92,12-7.28,24.24-7.67,33.92"/><path class="cls-1" d="M25.9,60.09a29.21,29.21,0,1,1,57.94,0h24.88c.08-1.22.13-2.44.13-3.68a55.49,55.49,0,0,0-.81-9.46,3,3,0,0,0-3.48-2.47l-5.3.93a3.42,3.42,0,0,1-4.36-2.09l-2.66-7.55a3.42,3.42,0,0,1,2.09-4.36l3.72-2a3,3,0,0,0,1-4.34A55.5,55.5,0,0,0,85.51,11.34a3,3,0,0,0-4.3.88l-2.06,3.36a3.42,3.42,0,0,1-4.45,1.89l-7.42-3A3.42,3.42,0,0,1,65.4,10l.94-4.23A3,3,0,0,0,64,2.19a55.34,55.34,0,0,0-8.92-.94,55.33,55.33,0,0,0-8.91.94A3,3,0,0,0,43.76,5.8L44.7,10a3.42,3.42,0,0,1-1.89,4.45l-7.42,3a3.42,3.42,0,0,1-4.45-1.89l-2.06-3.36a3,3,0,0,0-4.3-.88A55.5,55.5,0,0,0,11,25a3,3,0,0,0,1,4.34l3.72,2a3.42,3.42,0,0,1,2.09,4.36l-2.66,7.55a3.42,3.42,0,0,1-4.36,2.09l-5.3-.93a3,3,0,0,0-3.48,2.47,55.46,55.46,0,0,0-.81,9.46c0,1.24.05,2.46.13,3.68Z"/><line class="cls-1" x1="26.08" y1="60.09" x2="84.02" y2="60.09"/></g></g></svg>