<svg xmlns="http://www.w3.org/2000/svg" viewBox="0 0 157.5 147.64"><defs><style>.cls-1{fill:none;stroke:#366ca5;stroke-linecap:round;stroke-miterlimit:10;stroke-width:2.5px;}</style></defs><title>Asset 5</title><g id="Layer_2" data-name="Layer 2"><g id="Layer_1-2" data-name="Layer 1"><polyline class="cls-1" points="78.75 56.22 27.08 56.22 27.08 123.89 130.42 123.89 130.42 56.22 78.75 56.22"/><polyline class="cls-1" points="140.92 123.89 140.92 46.55 16.58 46.55 16.58 123.89"/><polygon class="cls-1" points="95.92 130.88 90.58 136.38 79.08 136.38 78.42 136.38 66.92 136.38 61.58 130.88 1.25 130.88 1.25 136.38 11.42 146.38 78.42 146.38 79.08 146.38 146.08 146.38 156.25 136.38 156.25 130.88 95.92 130.88"/><polyline class="cls-1" points="34.42 89.22 39.42 89.22 49.58 78.72 68.92 103.55 89.25 73.72 109.08 98.55 118.92 88.64 122.42 88.64"/><path class="cls-1" d="M79.46,19.27A20.29,20.29,0,0,1,99.74,39.55h17.2a38.53,38.53,0,0,0-.56-6.57A2.09,2.09,0,0,0,114,31.27l-3.68.65a2.37,2.37,0,0,1-3-1.45l-1.85-5.24a2.37,2.37,0,0,1,1.45-3l2.58-1.42a2.09,2.09,0,0,0,.71-3,38.54,38.54,0,0,0-9.41-9.5,2.09,2.09,0,0,0-3,.61l-1.43,2.33a2.37,2.37,0,0,1-3.09,1.31l-5.15-2.08a2.37,2.37,0,0,1-1.31-3.09l.65-2.94a2.09,2.09,0,0,0-1.65-2.5,38.4,38.4,0,0,0-6.19-.65,38.4,38.4,0,0,0-6.19.65,2.09,2.09,0,0,0-1.65,2.5l.65,2.94a2.37,2.37,0,0,1-1.31,3.09l-5.15,2.08a2.37,2.37,0,0,1-3.09-1.31L61.41,8.87a2.09,2.09,0,0,0-3-.61A38.54,38.54,0,0,0,49,17.76a2.09,2.09,0,0,0,.71,3l2.58,1.42a2.37,2.37,0,0,1,1.45,3l-1.85,5.24a2.37,2.37,0,0,1-3,1.45l-3.68-.65A2.09,2.09,0,0,0,42.79,33a38.51,38.51,0,0,0-.56,6.57H59.17A20.29,20.29,0,0,1,79.46,19.27Z"/></g></g></svg>