<svg xmlns="http://www.w3.org/2000/svg" viewBox="0 0 157.87 113.78"><defs><style>.cls-1,.cls-2,.cls-3,.cls-4,.cls-5{fill:none;stroke:#366ca5;stroke-linecap:round;stroke-miterlimit:10;}.cls-1{stroke-width:2.5px;}.cls-2{stroke-width:1.5px;}.cls-4{stroke-dasharray:0.67 2.89;}.cls-5{stroke-dasharray:0.7 3;}</style></defs><title>Asset 6</title><g id="Layer_2" data-name="Layer 2"><g id="Layer_1-2" data-name="Layer 1"><path class="cls-1" d="M104.43,92.56H10.13a8.88,8.88,0,0,1-8.88-8.88V10.13a8.88,8.88,0,0,1,8.88-8.88h117A8.88,8.88,0,0,1,136,10.13V41"/><line class="cls-1" x1="1.25" y1="77.5" x2="89.66" y2="77.5"/><path class="cls-1" d="M79.43,92.56l2.28,14.73a.67.67,0,0,0,.21.39l4,3.71a.67.67,0,0,1-.45,1.16H51.79a.67.67,0,0,1-.45-1.16l4-3.71a.67.67,0,0,0,.21-.39l2.28-14.73"/><circle class="cls-1" cx="68.62" cy="84.93" r="2.45"/><circle class="cls-1" cx="117.3" cy="65.14" r="30.28"/><path class="cls-1" d="M99.32,57.3a19.66,19.66,0,0,1,11.54-10.69"/><line class="cls-1" x1="138.7" y1="86.54" x2="156.62" y2="104.46"/><circle class="cls-1" cx="67.76" cy="37.69" r="9.69"/><circle class="cls-2" cx="36.64" cy="24.08" r="5.49"/><circle class="cls-2" cx="70.37" cy="12.01" r="5.49"/><circle class="cls-2" cx="64.88" cy="67.52" r="5.49"/><circle class="cls-2" cx="114.16" cy="16.81" r="5.49"/><circle class="cls-2" cx="27.95" cy="60.41" r="5.49"/><line class="cls-3" x1="41.67" y1="26.28" x2="59.39" y2="34.03"/><line class="cls-3" x1="68.74" y1="28.05" x2="69.82" y2="17.48"/><path class="cls-1" d="M67.76,37.69"/><line class="cls-3" x1="75.77" y1="13.03" x2="108.7" y2="16.16"/><line class="cls-3" x1="76.6" y1="33.71" x2="76.91" y2="33.57"/><line class="cls-4" x1="79.55" y1="32.38" x2="107.51" y2="19.8"/><line class="cls-3" x1="108.83" y1="19.2" x2="109.15" y2="19.06"/><line class="cls-3" x1="32.71" y1="57.69" x2="59.39" y2="42.47"/><line class="cls-5" x1="67.76" y1="47.38" x2="65.69" y2="62.1"/><line class="cls-3" x1="33.34" y1="61.45" x2="59.49" y2="66.48"/></g></g></svg>